<svg id="Capa_1" data-name="Capa 1" xmlns="http://www.w3.org/2000/svg" viewBox="0 0 256 256"><defs><style>.cls-1{fill:#d98918;}.cls-2{fill:#191e25;}</style></defs><title>Icono 256x256</title><polygon class="cls-1" points="130.15 204.88 130.15 210.98 124.05 210.98 124.05 204.88 130.15 204.88 130.15 204.88"/><path class="cls-1" d="M143.64,211.05h-2.91v-7.16a1.74,1.74,0,0,0-.61-1.48,2.2,2.2,0,0,0-1.37-.46,2.14,2.14,0,0,0-1.35.46,1.79,1.79,0,0,0-.59,1.48v7.16h-2.95v-6.57q0-2.86,1.5-3.84a6.64,6.64,0,0,1,3.31-1,8.55,8.55,0,0,1,1.89.21,4,4,0,0,1,1.69.84,3.72,3.72,0,0,1,1.49-.77,8.25,8.25,0,0,1,1.79-.28,6.32,6.32,0,0,1,3.42,1c1,.65,1.56,1.95,1.56,3.92v6.57H149a1.37,1.37,0,0,1-1-.4,1.39,1.39,0,0,1-.4-1v-5.73a1.77,1.77,0,0,0-.61-1.48,2.27,2.27,0,0,0-2.74,0,1.74,1.74,0,0,0-.61,1.48v7.16Z"/><path class="cls-1" d="M162.13,211.05h-3.37l-2-3.54-2.06,3.54h-3.41l3.66-5.77-3.45-5.44h3.24l1.94,3.38,2.15-3.63a1.31,1.31,0,0,1,1.26-.76h2.53l-4.21,6.49,3.7,5.73Z"/><path class="cls-2" d="M53.74,179.26q0-4.69-1.8-7.21a6,6,0,0,0-5.17-2.53,5.84,5.84,0,0,0-5.05,2.53Q40,174.33,40,179.26q0,4.58,1.8,6.85A6,6,0,0,0,47,188.63a5.74,5.74,0,0,0,4.93-2.52,11.59,11.59,0,0,0,1.8-6.85ZM40,202.82A4.1,4.1,0,0,1,36,206.9H31.87V177q0-8.4,4.93-11.48a19.88,19.88,0,0,1,10.69-3.06,17.32,17.32,0,0,1,6.07,1.14,11.2,11.2,0,0,1,4.87,3.31q3.62,4.68,3.61,12,0,7.57-3.61,12.26a11.25,11.25,0,0,1-9.25,4.56,12.08,12.08,0,0,1-5.29-1.08A9,9,0,0,1,40,190.92v11.9Z"/><path class="cls-2" d="M82,179a22.54,22.54,0,0,1-4.69,1.56l-2.76.6a7.12,7.12,0,0,0-3.13,1.56,4.94,4.94,0,0,0-.84,2.65,3.89,3.89,0,0,0,1.08,2.88,4.58,4.58,0,0,0,3.13,1A6.66,6.66,0,0,0,82,182v-3Zm1.93,14.78a14.69,14.69,0,0,1-5.35,1.62,48.05,48.05,0,0,1-5,.3A12.63,12.63,0,0,1,66,193.38q-3.24-2.34-3.24-7.75,0-5.06,2.94-7.21a16.91,16.91,0,0,1,7.52-2.89,7,7,0,0,0,1.44-.18q.84-.18,1.92-.3,5.3-.72,5.29-3.12A2.28,2.28,0,0,0,80,169.58a12.46,12.46,0,0,0-3.43-.54,8.74,8.74,0,0,0-3,.48,3.25,3.25,0,0,0-1.93,1.81H63.6A9.26,9.26,0,0,1,67,165.19q3.24-2.76,9.25-2.76,6.73,0,10.1,2.28a7.74,7.74,0,0,1,3.49,6.73v10.94a13.85,13.85,0,0,1-1.75,7.52,10.64,10.64,0,0,1-4.14,3.9Z"/><path class="cls-2" d="M98.46,179.26a11.59,11.59,0,0,0,1.8,6.85,5.74,5.74,0,0,0,4.93,2.52,6,6,0,0,0,5.17-2.52q1.8-2.28,1.8-6.85t-1.68-7.21a5.84,5.84,0,0,0-5-2.53,6,6,0,0,0-5.17,2.53q-1.8,2.52-1.8,7.21Zm13.7,23.56v-11.9a10,10,0,0,1-3.84,3.72,12.64,12.64,0,0,1-5.29,1.08,11,11,0,0,1-9.26-4.56q-3.49-4.46-3.49-12.26,0-7.46,3.49-12a11.3,11.3,0,0,1,4.81-3.31,17.11,17.11,0,0,1,6.13-1.14,19.91,19.91,0,0,1,10.7,3.06q4.92,3.07,4.93,11.48V206.9h-4.09a4.1,4.1,0,0,1-4.09-4.08Z"/><path class="cls-2" d="M149.67,163.15V181.9q0,8.53-4.45,11.18a18.74,18.74,0,0,1-9.74,2.64,19.32,19.32,0,0,1-9.43-2.88q-4.27-2.64-4.27-10.94V163.15h8.41v20.44a5,5,0,0,0,1.69,4.2,6,6,0,0,0,3.84,1.33,6.27,6.27,0,0,0,3.91-1.33,4.93,4.93,0,0,0,1.74-4.2V167.24a4.06,4.06,0,0,1,1.14-2.89,3.91,3.91,0,0,1,3-1.2Z"/><path class="cls-2" d="M158.8,175.89h12.26a7.83,7.83,0,0,0-1.68-4.81,5.77,5.77,0,0,0-4.45-1.68,5.85,5.85,0,0,0-4.32,1.68,6.89,6.89,0,0,0-1.81,4.81Zm14.43,9.38h6a13.18,13.18,0,0,1-5.05,7.69,15.28,15.28,0,0,1-9.38,2.76q-6.85,0-10.69-4.44t-3.85-12.38q0-7.69,3.72-12t10.7-4.45q7.22,0,11.18,4.33t3.85,12.38v1.32a2.06,2.06,0,0,1-.12.84H158.8q.12,3.73,1.81,5.53a5.67,5.67,0,0,0,4.68,1.92,6.83,6.83,0,0,0,3.49-.84,1.68,1.68,0,0,0,.66-.42l.66-.66a2.62,2.62,0,0,1,.9-1,3.61,3.61,0,0,1,2.23-.6Z"/><path class="cls-2" d="M195.22,195.12a60.9,60.9,0,0,1-8.59-.12c-3.09-.23-4.63-2.2-4.63-5.88V153.77h4.33a3.8,3.8,0,0,1,2.76,1.21,3.94,3.94,0,0,1,1.21,2.88v5.41h4.92V165a3.88,3.88,0,0,1-1.2,3,4,4,0,0,1-2.88,1.14h-.84v17.79c0,1.36.79,2,2.4,2h2.52v6.25Z"/><path class="cls-2" d="M203.76,175.89H216a7.83,7.83,0,0,0-1.68-4.81,5.78,5.78,0,0,0-4.45-1.68,5.87,5.87,0,0,0-4.33,1.68,6.94,6.94,0,0,0-1.8,4.81Zm14.42,9.38h6a13.12,13.12,0,0,1-5,7.69,15.28,15.28,0,0,1-9.38,2.76q-6.86,0-10.7-4.44t-3.85-12.38q0-7.69,3.73-12t10.7-4.45q7.22,0,11.18,4.33t3.84,12.38v1.32a2.06,2.06,0,0,1-.12.84H203.76q.12,3.73,1.8,5.53a5.68,5.68,0,0,0,4.69,1.92,6.86,6.86,0,0,0,3.49-.84,1.68,1.68,0,0,0,.66-.42l.66-.66a2.62,2.62,0,0,1,.9-1,3.58,3.58,0,0,1,2.22-.6Z"/><path class="cls-1" d="M185.07,69.36a5.73,5.73,0,0,0-.6-2.15,4.89,4.89,0,0,0-1.72-1.46l-40.23-18.7h0l-.18-.09v0s-6.33-2.81-9-2.81a17.76,17.76,0,0,0-6,1.58s-45,17.79-45.81,18.09-3.48,1-3.48,3.07,1.6,2.54,2.55,3.09S87,72.91,87,72.91l33.51,14.75s6.34,2.68,7.73,4.82,1.12,8.21,1.12,8.21l-.05,40.49s.26,7.07-1.19,7.2-5.64-1.28-8.73-2.55-31-13.82-31-13.82-4.58-2.22-5.15-3.28-.57-6-.57-7.58V95.58c0-1.68-.48-3.32-2.25-3.72S78,93.19,78,94.14s0,22.75,0,29.59c0,2.36,0,6.36.84,8s3.51,2.7,5,3.39c8.81,4.12,37.59,17.23,40.73,18.2s4.94,1.45,6.91,0c2.84-2.62,2.3-9.64,2.3-9.64l0-46.14s.24-7.52-1.53-8.75A71.83,71.83,0,0,0,126,85c-4.57-2.63-38.6-17-39.09-17.21s-.61-.23-1-.46c0-.19.75-.29,1.25-.49s28.56-11.22,40.62-16a13.64,13.64,0,0,1,5.29-1.32c2.25,0,5.72,1.59,5.72,1.59l7.54,3.14s20,9.5,28.77,13.16c.51.22,2.63,1,2.62,1.29s.23.17-.77.63c-5.8,2.7-24.53,9.84-25.67,10.5s-2.44,1.78-1.84,3.3,2.71,1.36,4,1,26-10.74,26-10.74.47-.23.74-.07.32.82.32.82V126.6s.1,4.88-.49,6-5.76,3.12-5.76,3.12-22.09,9.08-23,9.51-2.4,1.47-1.73,3.36,3.14,1.16,4.38.75S177,139.83,177,139.83s6.57-2.73,7.33-4.8.69-7.41.69-7.41l0-58.26Z"/></svg>